<svg width="77" height="127" viewBox="0 0 77 127" fill="none" xmlns="http://www.w3.org/2000/svg">
<g clip-path="url(#clip0_2202_106)">
<path d="M38.5752 10.347C49.5151 24.3455 55.355 41.608 55.1432 59.3214V63.5497L58.7526 65.7634C63.4162 68.609 66.8942 73.0225 68.553 78.1998C67.0966 77.119 65.573 76.1304 63.9912 75.2399L54.3662 69.7928L52.6367 80.7865C52.4869 81.758 52.2861 82.721 52.0351 83.6717H25.0651C24.664 82.4281 24.3382 81.1845 24.0374 79.8911L21.8568 69.942L12.9837 74.9166C11.5013 75.7521 10.0701 76.674 8.69758 77.6774C10.3887 72.56 13.7941 68.1713 18.3476 65.2411L21.7816 63.0274V59.0975C21.8435 41.456 27.7537 24.3248 38.6002 10.347H38.5752ZM38.6002 0C38.0377 0.00137692 37.4947 0.20456 37.0713 0.572072L36.8457 0.771054C22.3921 16.8121 14.3661 37.5547 14.2871 59.0727C8.15366 63.0214 3.61359 68.9834 1.46024 75.9167C-0.693108 82.85 -0.322785 90.3137 2.5065 97.0035C5.48699 90.4715 10.4694 85.0399 16.7435 81.4829C17.3727 84.1876 18.2107 86.8402 19.25 89.4173C19.3818 89.9127 19.674 90.3515 20.0815 90.666C20.4891 90.9806 20.9895 91.1536 21.5058 91.1584H56.2962C56.998 91.1584 57.6999 90.4869 58.0508 89.4422C59.0651 86.9921 59.7722 84.4276 60.1562 81.8063C66.4423 85.3484 71.4288 90.7844 74.3932 97.3269C77.3932 90.67 77.8577 83.1591 75.7004 76.1882C73.5432 69.2173 68.9107 63.2596 62.6627 59.4209C62.9106 37.776 54.9272 16.8338 40.3047 0.771054C40.0869 0.529465 39.8204 0.335984 39.5225 0.203154C39.2246 0.0703242 38.9018 0.00111036 38.5752 0L38.6002 0Z" fill="#4EA8DE"/>
<path d="M38.5752 57.0082C36.65 57.0081 34.7679 56.4425 33.1661 55.3826C31.5644 54.3227 30.3147 52.816 29.5745 51.0524C28.8344 49.2888 28.637 47.3472 29.0071 45.4724C29.3773 43.5976 30.2985 41.8735 31.6546 40.5174C33.0107 39.1614 34.741 38.234 36.6274 37.8523C38.5138 37.4706 40.4718 37.6516 42.2547 38.3725C44.0376 39.0934 45.5655 40.3219 46.6459 41.9032C47.7263 43.4844 48.3107 45.3477 48.3256 47.2581V47.2581C48.3555 48.4961 48.1394 49.7279 47.6895 50.883C47.2396 52.0381 46.5647 53.0939 45.7035 53.9901C44.8422 54.8863 43.8115 55.6054 42.6701 56.1062C41.5287 56.6069 40.2991 56.8796 39.0515 56.9087C38.8937 56.9338 38.733 56.9338 38.5752 56.9087V57.0082Z" fill="#4EA8DE"/>
<path d="M52.1356 97.3518C51.5084 97.3319 50.8836 97.4364 50.2977 97.6594C49.7118 97.8824 49.1767 98.2192 48.7238 98.6501C48.2708 99.081 47.9092 99.5974 47.66 100.169C47.4109 100.74 47.2793 101.355 47.2729 101.978V116.653C47.2729 117.933 47.7853 119.16 48.6972 120.065C49.6091 120.97 50.8459 121.478 52.1356 121.478C53.4252 121.478 54.6621 120.97 55.574 120.065C56.4859 119.16 56.9982 117.933 56.9982 116.653V102.177C57.0182 101.557 56.9136 100.939 56.6905 100.359C56.4674 99.7792 56.1302 99.2493 55.6986 98.8002C55.267 98.3511 54.7496 97.9917 54.1766 97.743C53.6036 97.4943 52.9865 97.3613 52.3612 97.3518H52.1356Z" fill="#5E60CE"/>
<path d="M25.0653 97.3517C24.4275 97.3182 23.7894 97.4124 23.189 97.6286C22.5886 97.8448 22.0382 98.1787 21.5705 98.6103C21.1028 99.042 20.7273 99.5625 20.4665 100.141C20.2057 100.72 20.0648 101.344 20.0522 101.978V116.653C20.0522 117.933 20.5646 119.16 21.4765 120.065C22.3884 120.97 23.6252 121.478 24.9149 121.478C26.2045 121.478 27.4414 120.97 28.3533 120.065C29.2652 119.16 29.7775 117.933 29.7775 116.653V102.177C29.7975 101.557 29.6929 100.939 29.4698 100.359C29.2467 99.7792 28.9095 99.2493 28.4779 98.8001C28.0463 98.351 27.5289 97.9916 26.9559 97.743C26.3829 97.4943 25.7658 97.3613 25.1405 97.3517H25.0653Z" fill="#5E60CE"/>
<path d="M38.2244 97.3518C37.599 97.3386 36.9771 97.4478 36.3942 97.6732C35.8113 97.8985 35.2788 98.2357 34.8273 98.6653C34.3757 99.0949 34.0139 99.6086 33.7624 100.177C33.511 100.745 33.3748 101.357 33.3618 101.978V122.2C33.3618 123.479 33.8741 124.707 34.786 125.612C35.698 126.517 36.9348 127.025 38.2244 127.025C39.5141 127.025 40.7509 126.517 41.6628 125.612C42.5748 124.707 43.0871 123.479 43.0871 122.2V102.301C43.1071 101.681 43.0025 101.063 42.7794 100.483C42.5563 99.9036 42.2191 99.3737 41.7875 98.9246C41.3559 98.4755 40.8385 98.1161 40.2655 97.8674C39.6925 97.6187 39.0754 97.4857 38.45 97.4761L38.2244 97.3518Z" fill="#5E60CE"/>
</g>
<defs>
<clipPath id="clip0_2202_106">
<rect width="77" height="127" fill="white"/>
</clipPath>
</defs>
</svg>
